<?xml version="1.0" encoding="utf-8"?>
<!-- Generator: Adobe Illustrator 21.1.0, SVG Export Plug-In . SVG Version: 6.00 Build 0)  -->
<svg version="1.0" xmlns="http://www.w3.org/2000/svg" xmlns:xlink="http://www.w3.org/1999/xlink" x="0px" y="0px"
	 viewBox="0 0 1200 600" style="enable-background:new 0 0 1200 600;" xml:space="preserve">
<style type="text/css">
	.st0{fill:#383838;}
	.st1{fill:#533777;}
	.st2{fill:#5E4680;}
	.st3{fill:none;stroke:#5E4680;stroke-linejoin:bevel;stroke-miterlimit:10;}
	.st4{fill:#5E4680;stroke:#5E4680;stroke-linejoin:bevel;stroke-miterlimit:10;}
	.st5{fill:#F2DDA4;stroke:#F2DDA4;stroke-miterlimit:10;}
	.st6{fill:#F2DDA4;stroke:#F2DDA4;stroke-width:0.9019;stroke-miterlimit:10;}
	.st7{fill:#F2DDA4;stroke:#F2DDA4;stroke-width:0.8013;stroke-miterlimit:10;}
</style>
<g id="Layer_4">
	<ellipse class="st0" cx="135.7" cy="554" rx="66.2" ry="11"/>
	<ellipse class="st0" cx="67.9" cy="560" rx="35.1" ry="11"/>
	<ellipse class="st0" cx="240" cy="559.2" rx="35.1" ry="11"/>
	<ellipse class="st0" cx="612.1" cy="557.7" rx="52.8" ry="11"/>
	<ellipse class="st0" cx="544.2" cy="559.2" rx="26" ry="8.1"/>
	<ellipse class="st0" cx="693.4" cy="558.7" rx="26" ry="8.1"/>
	<ellipse class="st0" cx="829.3" cy="555.7" rx="66.5" ry="8.1"/>
	<ellipse class="st0" cx="964.5" cy="557.7" rx="37.7" ry="8.1"/>
	<ellipse class="st0" cx="1040" cy="559.1" rx="52.1" ry="8.1"/>
	<ellipse class="st0" cx="1105.7" cy="557" rx="35.5" ry="8.1"/>
	
		<ellipse transform="matrix(0.9986 -5.280938e-02 5.280938e-02 0.9986 -28.8563 23.8516)" class="st0" cx="436.9" cy="558" rx="81.9" ry="11"/>
	<ellipse class="st0" cx="339.4" cy="518.3" rx="62.9" ry="19.8"/>
	<rect x="-28" y="-29" class="st1" width="1284" height="696"/>
</g>
<g id="Layer_1">
	<g>
		<path class="st2" d="M798.6,555.9v-33.2l-22.2-5.9c0,0-0.6,23.3,14.7,23c0,0-1,13.4-7.5,16H798.6z"/>
		<path class="st2" d="M773.8,442.7c10-2.6,73.1-10.9,118.2-2.3c45,8.6,25.1,77.7,6.3,81.7s-133.5,5.4-144.4-8.2
			C743,500.3,726.7,454.8,773.8,442.7z"/>
		<path class="st2" d="M898.1,450.9l15.3-18.6l-17-26.2l-9.2,14.2l3.8,0.8l6.9-3.8l2.4,5l-20,19.5
			C880.3,441.8,886.8,454.8,898.1,450.9z"/>
		<path class="st2" d="M765,454.4l-13.6-25.6l22.6-11.7l14.2,10.1l-1.9,5.2l-2.9-1l0.2-3h-9.4l6.5,18.1
			C780.7,446.5,774.3,458,765,454.4z"/>
		<path class="st2" d="M742.6,472.8c0,0-20.7,10.8-12.9,24.5c3.6,4.5,12.9,8.1,12.9,8.1s-2.1,5.2,1.4,8l-5.9,7.5l13.4-10.5l-4-7.7
			c0,0-16.1-5.7-15.5-12c0.6-6.3,10.2-9.9,10.2-9.9L742.6,472.8z"/>
		<path class="st2" d="M908.3,471c0,0,26,5.2,15.9,24.7c-2.5,3.6-17.2,10.5-17.2,10.5l16.6,12.4l5.9-0.8l-7.3-7.5l5.9-2.5l-7.1-1
			c0,0,23.3-17.6,7.1-32.7c-7.6-6.3-22-6.5-22-6.5L908.3,471z"/>
		<path class="st2" d="M870.4,559.1v-36.4l-22.2-2.7c0,0-0.6,23.3,14.7,23c0,0-1,13.4-7.5,16H870.4z"/>
		<path class="st3" d="M776.5,440.4c17.2-2.9,65.2-8.1,104-2.7"/>
		<path class="st3" d="M847.1,523.6c-38.8,0.1-89-2.5-95.7-10.9c-9.8-12.2-24-50.1,7.4-66.5"/>
		<path class="st3" d="M895.6,449.6l15.3-18.6l-17-26.2l-9.2,14.2l3.8,0.8l6.9-3.8l2.4,5l-20,19.5
			C877.8,440.6,884.3,453.6,895.6,449.6z"/>
		<path class="st3" d="M762.5,453.2l-13.6-25.6l22.6-11.7l14.2,10.1l-1.9,5.2l-2.9-1l0.2-3h-9.4l6.5,18.1
			C778.2,445.2,771.8,456.7,762.5,453.2z"/>
		<path class="st3" d="M740.1,471.5c0,0-20.7,10.8-12.9,24.5c3.6,4.5,12.9,8.1,12.9,8.1s-2.1,5.2,1.4,8l-5.9,7.5l13.4-10.5l-4-7.7
			c0,0-16.1-5.7-15.5-12c0.6-6.3,10.2-9.9,10.2-9.9L740.1,471.5z"/>
		<g>
			<path class="st2" d="M905.8,469.7c2.9,0.6,5.7,1.6,8.3,2.9c2.6,1.3,5.1,3,7.1,5.2c1.9,2.2,3.1,5.2,3.1,8.2c0,3-1,5.9-2.3,8.6l0,0
				c-1.1,1.4-2.5,2.4-3.9,3.3c-1.4,0.9-2.9,1.8-4.3,2.7c-1.5,0.9-3,1.6-4.5,2.4l-4.5,2.3l0.1-0.8l16.6,12.3l-0.4-0.1l5.9-0.9
				l-0.3,0.8l-7.3-7.6l0.2-0.8l5.9-2.5l0.1,0.9l-7.1-1.1l-0.2-0.8c3.7-3,7.1-6.6,9.6-10.6c1.2-2.1,2.3-4.2,2.8-6.6
				c0.3-1.2,0.4-2.3,0.4-3.5c0-1.2-0.2-2.4-0.5-3.5c-0.6-2.3-1.9-4.4-3.4-6.2c-0.8-0.9-1.6-1.8-2.6-2.5c-1-0.7-2-1.3-3.1-1.8
				c-4.4-2.1-9.2-3.2-14-3.8c4.8,0.5,9.7,1.4,14.1,3.5c1.1,0.5,2.2,1.1,3.2,1.8c1,0.7,1.9,1.6,2.7,2.5c1.6,1.8,2.9,4,3.6,6.4
				c0.4,1.2,0.5,2.4,0.6,3.7c0,1.2-0.1,2.5-0.4,3.7c-0.5,2.4-1.5,4.7-2.8,6.8c-1.3,2.1-2.7,4.1-4.4,5.9c-1.6,1.8-3.4,3.5-5.4,5.1
				l-0.2-0.8l7.1,1l0.1,0.9l-5.9,2.5l0.2-0.8l7.3,7.5l-0.3,0.8l-5.9,0.8l-0.4-0.1l-16.5-12.4l0.1-0.8l4.5-2.3c1.5-0.8,3-1.5,4.5-2.3
				c1.5-0.8,2.9-1.7,4.3-2.6c1.4-0.9,2.8-1.9,3.8-3.1l0,0c1.3-2.6,2.3-5.4,2.3-8.2c0-2.9-1.1-5.7-2.9-7.9c-1.8-2.3-4.3-4-6.9-5.3
				C911.4,471.4,908.7,470.4,905.8,469.7z"/>
		</g>
		<path class="st3" d="M773.8,519.6c0,0-0.6,19.3,14.7,19.1c0,0-1,13.4-7.5,16h15.1v-33.2"/>
		<path class="st3" d="M845.7,518.7c0,0-0.1,1.9,0.2,4.6c0.7,6.8,3.5,18.6,14.4,18.4c0,0-1,13.4-7.5,16h15.1v-33.2"/>
	</g>
	<g>
		<path class="st2" d="M704,461.1c0,0,7.8-4.2,9-3.4c1.2,0.8,0.2,6.9-1.1,9.7C710.5,470.2,704,461.1,704,461.1z"/>
		<path class="st2" d="M719.7,478.1c0,0,7.4-4.7,9.8-3.7s-0.9,9.9-3.3,11.9S719.7,478.1,719.7,478.1z"/>
		<path class="st2" d="M729.3,496.3c0,0,9.9-2.5,10.9,1.2c1,3.8-6.2,12.6-6.2,12.6L729.3,496.3z"/>
		<path class="st2" d="M690,456.1c0,0,21-1.1,40.7,38.5c19.7,39.6-16.3,54.5-16.3,54.5l1.2,7l-15.9,1.9c0,0,6-0.8,1-10.8l-9.1,0
			l1.6,9.8l-15.1,1.9c0,0,6-2.2,0.7-13.2c0,0-39.5-3-31.4-33.2C655.6,482,680.8,458.8,690,456.1z"/>
		<path class="st2" d="M695,462.6c0,0-12.6-17-14-16.7c-1.4,0.4-3.3,14.4,1.8,17.1C687.9,465.7,695,462.6,695,462.6z"/>
		<path class="st2" d="M737.7,520.4c0,0,13.2-4,13.7-0.4c0.6,3.6-5.7,12.3-5.7,12.3L737.7,520.4z"/>
		<path class="st2" d="M752.1,538.3c0,0,5.7-7.4,7.5-5.8s1.6,9.8,1.6,9.8L752.1,538.3z"/>
		<path class="st2" d="M720.2,545.8c0,0,44.9-1.8,45-3.4c0-1.6-24.4-9.9-31.2-32.3C727.1,487.7,720.2,545.8,720.2,545.8z"/>
		<path class="st3" d="M687.7,455.4c0,0,21-1.1,40.7,38.5s-16.3,54.5-16.3,54.5l1.2,7l-15.9,1.9c0,0,6-0.8,1-10.8l-9.1,0l1.6,9.8
			l-15.1,1.9c0,0,6-2.2,0.7-13.2c0,0-39.5-3-31.4-33.2c6-22.3,21.3-40.8,32.6-50"/>
		<path class="st3" d="M692.7,461.9c0,0-12.6-17-14-16.7c-1.4,0.4-3.3,14.4,1.8,17.1S692.7,461.9,692.7,461.9z"/>
		<path class="st3" d="M701.7,460.4c0,0,7.8-4.2,9-3.4c1.2,0.8,0.2,6.9-1.1,9.7"/>
		<path class="st3" d="M717.5,477.4c0,0,7.4-4.7,9.8-3.7s-0.9,9.9-3.3,11.9"/>
		<path class="st3" d="M728.6,495.3c0,0,8.3-2.3,9.3,1.5c0.7,2.5-2.4,7.4-4.4,10.3"/>
		<path class="st3" d="M735.4,519.6c0,0,13.2-4,13.7-0.4c0.4,2.4-2.4,7.2-4.2,10.1"/>
		<path class="st3" d="M752,535c1.8-2,4.2-4.1,5.2-3.2c1.1,1,1.4,4.7,1.5,7.2"/>
		<path class="st3" d="M717.9,545.1c0,0,44.9-1.8,45-3.4c0-1.2-13.2-6-22.9-17.4c-1.8-2.2-3.5-4.5-5-7.2"/>
		<g>
			<path class="st2" d="M703,545.1c-1.5,0.8-3.1,1.2-4.7,1.5c-1.6,0.3-3.3,0.4-5,0.3c-1.7-0.1-3.3-0.3-4.9-0.6
				c-0.8-0.1-1.6-0.4-2.4-0.6c-0.8-0.3-1.6-0.6-2.3-0.9c1.6,0.3,3.2,0.5,4.8,0.7c1.6,0.2,3.2,0.3,4.8,0.4c1.6,0.1,3.2,0,4.8-0.1
				C699.8,545.6,701.4,545.5,703,545.1z"/>
		</g>
	</g>
	<g>
		<path class="st2" d="M1043,399.6c0,0,3.1,25.3-7.5,34s-50,30.9-31.3,98.6c0,0-10,13.3,1.3,17.1c11.3,3.8,15.8,2.7-2.2,8.4h19.1
			l-1-18c0,0,23.2,9.1,41.7,5.6v14.7h20.9c0,0-10.7-4.2-9.5-6.4c1.1-2.2,16.4-4.7,10.4-12.7c0,0-8.7-76.2-34.4-117.7
			c-2.7-6.2-1.3-23.5-1.3-23.5H1043z"/>
		<path class="st2" d="M1047.3,406.2c-3.7,0.1-7.2-1.4-9.9-4c-5.6-5.4-14.9-17.7,5.3-27.3C1066.7,363.5,1066.9,405.6,1047.3,406.2z"
			/>
		<path class="st2" d="M1002.8,493.5c0,0-9.1,3.1-8.7,7.7c0,0-5.1-2.8-7.8-1.7l-2.9-7.1v7.1l-15.3,1.7l12.4,1.4l-11.1,1.6l9.8,1.1
			l-6,3.6l10-1.6c0,0,9.6,11.1,15.9,8S1002.8,493.5,1002.8,493.5z"/>
		<path class="st3" d="M1040.7,403.6c0.3,7.9-0.3,22.5-7.9,28.7c-10.7,8.7-50,30.9-31.3,98.6c0,0-10,13.3,1.3,17.1
			c11.3,3.8,15.8,2.7-2.2,8.4h19.1l-1-18c0,0,23.2,9.1,41.7,5.6v14.7h20.9c0,0-10.7-4.2-9.5-6.4c1.1-2.2,16.4-4.7,10.4-12.7
			c0,0-8.7-76.2-34.4-117.7c-1.6-3.7-1.8-11.5-1.6-17.1"/>
		<path class="st3" d="M1044.6,404.8c-3.7,0.1-7.2-1.4-9.9-4c-5.6-5.4-14.9-17.7,5.3-27.3C1064,362.1,1064.3,404.3,1044.6,404.8z"/>
		<path class="st3" d="M997.2,493.4c0,0-6.2,1.9-5.8,6.4c0,0-5.1-2.8-7.8-1.7l-2.9-7.1v7.1l-15.3,1.7l12.4,1.4l-11.1,1.6l9.8,1.1
			l-6,3.6l10-1.6c0,0,9.6,11.1,15.9,8"/>
	</g>
	<g>
		<path class="st2" d="M993,501.4c0,0,5.3-73.1,4.3-77.5c-1-4.4-8-23.3-41.3-19.7c-33.3,3.6-44.6,29.6-39,55.9c0,0,9,19.9,7.9,34
			l6.7-1.9c0,0,7.3,16.1,32.6,22c0,0,6,13.7,17.5,20.1c2.9,3.2,1.8,16.9-13.8,20.9l3.6,1.8h19.3v-26.6c0,0-16-14.7,0-20.4L993,501.4
			z"/>
		<path class="st2" d="M939.9,502.4c0,0-6.2,12-3.5,16.6c2.7,4.7,20.2,10.4,17.8,29.3c0,4.2-13.8,8.7-13.8,8.7h21.3v-28.6
			c0,0-12.2-8.4-4-18.7L939.9,502.4z"/>
		<path class="st2" d="M982.4,473.6c0,0-0.2,34.1,9.3,40.3c9.5,6.2,21.9,2.6,22.1-6c0,0-3.2-2.2-4.5,0.7c0,0,4.2-7.5,0.4-6.2
			l-2.4,2.5c0,0,2.9-7.2,0-5.8c-1.8,0.6-2.3,2.7-2.3,2.7s1.6-4.5-1.4-2.7c-3,1.8-2.8,5.9-5.4,7.9c0,0,0-3.3-4.1-3.1
			c-1.6,0.1-7.8-0.4-5.1-27"/>
		<path class="st2" d="M923.8,481c0,0-11.1,19.8-23.2,4.5c0,0,9.2-0.1,9.7-6c0.4-5.9-6.8-9.8-6.8-9.8l2.9-3c0,0,4.3,6.1,8.3,4
			c1.3-1,1-8.9-6.1-9c-2.2,0-17.9,19.9-17.9,19.9s10.2,15.6,20.2,14.7c5.5-0.5,10.5-4.6,13.9-8.2"/>
		<path class="st2" d="M906.3,473.6H931c0,0,3,12.3-10.5,13C906.9,487.2,906.3,473.6,906.3,473.6z"/>
		<path class="st2" d="M978.4,416.8l23.1-15.7l-11.5,26.6C989.9,427.7,979.7,430.8,978.4,416.8z"/>
		<path class="st2" d="M967.8,407.7l-8.3-26l-9.3,22.7C950.2,404.3,956.7,416.2,967.8,407.7z"/>
		<path class="st2" d="M935.8,410.4l-15.1-11.8l3.2,22.2C923.9,420.7,929.3,413.3,935.8,410.4z"/>
		<path class="st3" d="M933.8,409l-15.1-11.8l3.2,22.2C921.9,419.4,927.3,412,933.8,409z"/>
		<path class="st3" d="M949,403.6c-27.6,6.4-39.2,31-34,55.2c0,0,9,19.9,7.9,34l6.7-1.9c0,0,7.3,16.1,32.6,22c0,0,6,13.7,17.5,20.1
			c2.9,3.2,1.8,16.9-13.8,20.9l3.6,1.8h19.3v-26.6c0,0-14.1-12.9-2.6-19.2"/>
		<path class="st3" d="M937.9,501.1c0,0-6.2,12-3.5,16.6c2.7,4.7,20.2,10.4,17.8,29.3c0,4.2-13.8,8.7-13.8,8.7h21.3v-28.6
			c0,0-10.5-7.3-5.5-16.5"/>
		<g>
			<path class="st2" d="M980.4,472.3c0.1,5.8,0.5,11.6,1.3,17.4c0.8,5.7,1.8,11.5,4,16.8c1.2,2.6,2.7,5.1,5.3,6.4
				c2.5,1.4,5.3,2.2,8.1,2.4c2.8,0.1,5.7-0.4,8.1-1.9c1.2-0.7,2.2-1.7,2.9-2.9c0.7-1.2,1-2.5,1.1-3.9l0.2,0.4
				c-0.3-0.2-0.7-0.4-1.1-0.5c-0.4-0.1-0.8-0.2-1.1-0.2c-0.4,0-0.7,0.1-0.9,0.3c-0.3,0.2-0.5,0.5-0.7,0.9l-0.9-0.5
				c0.6-1.1,1.2-2.3,1.6-3.6c0.2-0.6,0.4-1.3,0.3-1.7c-0.1-0.3-0.1-0.3-0.2-0.3c-0.2,0-0.4,0-0.7,0.1l0.2-0.1l-2.4,2.5l-0.8-0.5
				c0.4-1.1,0.8-2.2,1.1-3.4c0.1-0.6,0.2-1.1,0.2-1.6c0-0.3-0.1-0.4-0.1-0.4c0,0-0.3,0-0.5,0.1l-0.1,0c-0.5,0.2-0.9,0.5-1.3,0.9
				c-0.2,0.2-0.3,0.5-0.5,0.7c-0.1,0.2-0.2,0.5-0.3,0.8l-0.8-0.3c0.2-0.5,0.3-1.1,0.4-1.7c0-0.3,0-0.5,0-0.7
				c-0.1-0.2-0.1-0.2-0.3-0.2c-0.4,0-0.9,0.4-1.4,0.7c-0.4,0.4-0.8,0.8-1.1,1.2c-0.6,1-1.1,2.1-1.6,3.2c-0.5,1.1-1.2,2.3-2.2,3.1
				l-0.6-0.3c0-0.6-0.3-1.3-0.7-1.8c-0.4-0.5-1-0.8-1.7-0.9c-0.7-0.2-1.4,0-2.2-0.1c-0.8-0.1-1.5-0.6-2-1.2c-1.1-1.1-1.6-2.6-2-4
				c-0.4-1.4-0.6-2.9-0.8-4.4c-0.3-2.9-0.3-5.9-0.1-8.9c0.1-2.9,0.4-5.9,0.7-8.8c-0.2,2.9-0.4,5.9-0.5,8.8c-0.1,2.9,0,5.9,0.3,8.8
				c0.2,1.4,0.4,2.9,0.8,4.3c0.4,1.4,1,2.8,1.9,3.8c0.5,0.5,1.1,0.9,1.7,1c0.6,0.1,1.4,0,2.2,0.1c0.8,0.1,1.6,0.5,2.1,1.1
				c0.6,0.6,0.9,1.4,0.9,2.2l-0.6-0.3c0.9-0.7,1.5-1.7,1.9-2.8c0.5-1.1,0.9-2.3,1.6-3.3c0.7-1.1,1.6-2,3.1-2.3c0.2,0,0.5,0,0.7,0.2
				c0.1,0.1,0.2,0.2,0.3,0.3c0.1,0.1,0.1,0.2,0.1,0.3c0.1,0.4,0.1,0.7,0.1,1.1c-0.1,0.7-0.2,1.3-0.4,1.9l-0.8-0.3
				c0.1-0.4,0.2-0.6,0.4-0.9c0.2-0.3,0.3-0.6,0.5-0.9c0.4-0.5,1-1,1.7-1.2l-0.1,0c0.3-0.1,0.7-0.3,1.2-0.1c0.3,0.1,0.4,0.4,0.5,0.6
				c0.1,0.2,0.1,0.4,0.1,0.6c0.1,0.7-0.1,1.3-0.2,1.9c-0.3,1.2-0.7,2.4-1.1,3.5l-0.8-0.5l2.4-2.5l0.2-0.1c0.4-0.1,0.7-0.2,1.2-0.1
				c0.2,0,0.5,0.2,0.7,0.4c0.2,0.2,0.2,0.5,0.3,0.7c0.1,0.8-0.2,1.5-0.4,2.2c-0.4,1.3-1,2.5-1.7,3.7l-0.9-0.5
				c0.2-0.4,0.5-0.9,0.9-1.2c0.4-0.3,1-0.5,1.5-0.5c0.5,0,1,0.1,1.5,0.2c0.5,0.2,0.9,0.4,1.3,0.6l0.2,0.4c-0.1,1.5-0.5,3.1-1.3,4.4
				c-0.8,1.3-1.9,2.4-3.3,3.2c-2.6,1.6-5.7,2.1-8.6,2c-3-0.2-5.9-1.1-8.5-2.5l-1-0.6c-0.3-0.2-0.6-0.5-0.9-0.7
				c-0.6-0.5-1.1-1.1-1.5-1.7c-0.9-1.2-1.6-2.5-2.2-3.9c-1.1-2.7-1.9-5.6-2.5-8.4c-0.6-2.9-1-5.8-1.3-8.7
				C980.6,484,980.3,478.1,980.4,472.3z"/>
		</g>
		<path class="st3" d="M921.8,479.7c0,0-11.1,19.8-23.2,4.5c0,0,9.2-0.1,9.7-6c0.4-5.9-6.8-9.8-6.8-9.8l2.9-3c0,0,4.3,6.1,8.3,4
			c1.3-1,1-8.9-6.1-9c-2.2,0-17.9,19.9-17.9,19.9s10.2,15.6,20.2,14.7c5.5-0.5,10.5-4.6,13.9-8.2"/>
		<path class="st3" d="M904.3,472.3H929c0,0,3,12.3-10.5,13C904.9,485.9,904.3,472.3,904.3,472.3z"/>
		<path class="st3" d="M961.4,472.3c0,0,28.5-3.9,31.8-3.9s8.4,4,5.3,9.3"/>
		<path class="st3" d="M976.4,415.4l23.1-15.7l-11.5,26.6C987.9,426.3,977.7,429.5,976.4,415.4z"/>
		<path class="st3" d="M965.8,406.3l-8.3-26l-9.3,22.7C948.2,403,954.7,414.8,965.8,406.3z"/>
	</g>
	<g>
		<path class="st2" d="M95,452.3c0,0,2.7,29.4,8,31.4l-8.4-6.5l3.7,9.5l-7.5-9.5l1.1,9.5l-2.7-5v-33.5L95,452.3z"/>
		<path class="st2" d="M55,291.8c0,0-13.7,46.3-18.3,55.6s-52.6,86.2-21.3,129.7L14.1,463l5,14.1l-0.7-14.4l5.3,16v-13.3l6.2,13.3
			c0,0-0.2-57,6.8-74.9c0,0-1.3,32.3,18.3,74.9c4,11.3,8,66.3,0,79.6h18c0,0-11.3-2-9.7-7.3c1.7-5.3,10-49.4,9.7-59.2l3,66.5h13.3
			c0,0-9.3-3.3-9-14s9-62.6,9-62.6l5.7-29.4c0,0,30.6-24.6,0-92.9c-4-18.3-4.3-71.6-4.3-71.6l-5-8L59,284.5
			C59,284.5,62,290.5,55,291.8z"/>
		<circle class="st2" cx="91.7" cy="312.1" r="5.3"/>
		<path class="st2" d="M55,291.8c0,0-10.4-1.6-11-8.4c-0.6-6.9,11-16,11-16l-5.5,12.4l9.5,4.7C59,284.5,61.7,291.2,55,291.8z"/>
		<path class="st2" d="M85.7,279.8c0,0,9.5-7.1-2-15.3c0,0,23.3,2.8,7,23.3"/>
		<path class="st3" d="M52.4,290.5c0,0-13.7,46.3-18.3,55.6s-52.6,86.2-21.3,129.7l-1.3-14.1l5,14.1l-0.7-14.4l5.3,16V464l6.2,13.3
			c0,0-0.2-57,6.8-74.9c0,0-1.3,32.3,18.3,74.9c4,11.3,8,66.3,0,79.6h18c0,0-11.3-2-9.7-7.3c1.7-5.3,10-49.4,9.7-59.2l3,66.5h13.3
			c0,0-9.3-3.3-9-14c0.3-10.7,9-62.6,9-62.6l5.7-29.4c0,0,30.6-24.6,0-92.9c-4-18.3-4.3-71.6-4.3-71.6l-5-8l-26.6,4.7
			C56.4,283.2,59.4,289.2,52.4,290.5z"/>
		<path class="st3" d="M52.4,290.5c0,0-10.4-1.6-11-8.4s11-16,11-16l-5.5,12.4l9.5,4.7C56.4,283.2,59,289.8,52.4,290.5z"/>
		<path class="st3" d="M83,278.5c0,0,9.5-7.1-2-15.3c0,0,23.3,2.8,7,23.3"/>
	</g>
	<g>
		<path class="st2" d="M568.7,561.1l91.9-3.1c0,0,2.7-17.9-7.5-17c0,0-1.5-26.1-30.5-26.6c-29-0.4-46,9.7-46.5,32.1
			C576,546.5,565.3,548.5,568.7,561.1z"/>
		<path class="st2" d="M636.6,517.3c0,0,13.3-5.7,10.5-21.2c0,0,11.2,7.5,18.6,6.9c0,0-15.7,1.1-8.9,11.5c0,0-9.1-5.7-9.5,3.9
			C647.2,518.3,645.6,513.5,636.6,517.3z"/>
		<path class="st2" d="M589.9,521c0,0-12.8-5.5-12.4-18.3c0,0-5.5,6.4-13.1,3.3c0,0,11.3,3.8,9.5,10.6c0,0,7.1-5.8,7.3,4.4
			C581.3,521,582.6,517.7,589.9,521z"/>
		<path class="st3" d="M566,559.8l91.9-3.1c0,0,2.7-17.9-7.5-17c0,0-1.5-26.1-30.5-26.6c-29-0.4-46,9.7-46.5,32.1
			C573.3,545.2,562.7,547.2,566,559.8z"/>
		<path class="st3" d="M633.9,516c0,0,13.3-5.7,10.5-21.2c0,0,10.4,8.9,18.6,6.9c0,0-15.7,1.1-8.9,11.5c0,0-9.1-5.7-9.5,3.9
			C644.6,517,642.9,512.2,633.9,516z"/>
		<path class="st3" d="M587.3,519.7c0,0-12.8-5.5-12.4-18.3c0,0-5.5,6.4-13.1,3.3c0,0,11.3,3.8,9.5,10.6c0,0,7.1-5.8,7.3,4.4
			C578.6,519.7,580,516.4,587.3,519.7z"/>
	</g>
	<g>
		<path class="st2" d="M416.8,398.5c8.7-1.4,54.4-8.8,73.3,20.3c18.8,29.1-4,72.7-1.1,107.9c2.4,12,4.2,12.5,4.2,12.5
			s16.4,5.6,17.7,12.1l-58.4,5.1l-1.1-9.6c0,0-17,3-20.6,1.7l-0.2,8l-59.3,2.4c0,0,6.2-16.2,27.2-15.4c0,0-19-80.4-17.3-97.3
			C382.9,429.3,394.9,402,416.8,398.5z"/>
		<path class="st3" d="M414.1,397.2c8.7-1.4,54.4-8.8,73.3,20.3c18.8,29.1-4,72.7-1.1,107.9c2.4,12,4.2,12.5,4.2,12.5
			s16.4,5.6,17.7,12.1l-58.4,5.1l-1.1-9.6c0,0-17,3-20.6,1.7l-0.2,8l-59.3,2.4c0,0,6.2-16.2,27.2-15.4c0,0-19-80.4-17.3-97.3
			S392.2,400.7,414.1,397.2z"/>
		<path class="st3" d="M430.5,397.2c0,0,15.5-21.9,27.2-23.2c20.4-2.2,18.8,16.4,26.1,17.9"/>
		<path class="st3" d="M419.6,397.2c0,0-14.2-48.2-39.4-38.7c-10.2,2.9-13.3,16.6-13.3,16.6"/>
		
			<ellipse transform="matrix(0.7605 -0.6493 0.6493 0.7605 -139.6875 409.4779)" class="st4" cx="485.3" cy="394.1" rx="6.3" ry="3.9"/>
		
			<ellipse transform="matrix(7.864237e-02 -0.9969 0.9969 7.864237e-02 -36.0329 709.3982)" class="st4" cx="365.8" cy="374.2" rx="6.3" ry="3.9"/>
	</g>
	<g>
		<polygon class="st2" points="1098,345.3 1119,343.7 1104.3,360.6 		"/>
		<polygon class="st2" points="1078.7,343.7 1061.4,337.3 1070,358.6 		"/>
		<polygon class="st2" points="1156,359 1135.6,357.3 1145.8,377.4 		"/>
		<polygon class="st2" points="1173.6,360.6 1197.1,353.9 1180.4,380.6 		"/>
		<path class="st2" d="M1109.7,426.3c7.7,2,39-66,46.3-67.3c7.3-1.3,22-12.9,24.3,18.4s-30.3,55.6-39.6,68.2
			c-9.3,12.7-15,46.8-13.7,72.4c1.3,25.5,7.7,39.5,7.7,39.5l-14-13.3l0.7,13.3l-11.7-11.3l-12,8c0,0,4.3-9,3.7-12
			c0,0-12.7,9.3-17.7,9c0,0,14-12.8,13.7-25.6c-0.3-12.7,1.3-64-11-84c-12.3-20-39.6-67.3-4.3-104.3c12.7-9.6,29.3,14.7,23.6,44
			C1100,410.6,1109.7,426.3,1109.7,426.3z"/>
		<path class="st2" d="M1161.1,423c0,0,8.8,25.3,6.5,29.3s-22.6,9.4-28,8c0,0,3,3.9,2,9.1c0,0,6,6.9,4.2,8.9l-13.7-11.9l3.5-11.2
			c0,0,25-0.3,25.5-6.3s-5.8-19.4-5.8-19.4L1161.1,423z"/>
		<path class="st2" d="M1085.5,434.2c0,0-7.5,34.2-13,22.6c-5.5-11.6-1.7-30.1-7.9-33.9l1.4,8.5l-21.7,5.8l10,2l10.2-1.4
			c0,0,1.1,32.6,10.4,30.6c9.3-2,14.9-19.4,14.9-19.4L1085.5,434.2z"/>
		<polyline class="st3" points="1153.3,357.6 1133,356 1141.6,373 		"/>
		<polyline class="st3" points="1173.2,358.7 1194.4,352.6 1177.7,379.3 		"/>
		<path class="st3" d="M1082.2,437.8c-12.9-21.2-36.8-66.3-2.8-101.8c12.7-9.6,29.3,14.7,23.6,44c-5.7,29.3,4,45,4,45
			c7.7,2,39-66,46.3-67.3c7.3-1.3,22-12.9,24.3,18.4s-30.3,55.6-39.6,68.2s-15,46.8-13.7,72.4c1.3,25.5,7.7,39.5,7.7,39.5l-14-13.3
			l0.7,13.3l-11.7-11.3l-12,8c0,0,4.3-9,3.7-12c0,0-12.7,9.3-17.7,9c0,0,14-12.8,13.7-25.6c-0.3-11.8,1.1-56.8-8.5-79.2"/>
		<polyline class="st3" points="1099.1,343.7 1116.3,342.3 1103.7,357 		"/>
		<polyline class="st3" points="1074,341.6 1058.7,336 1066.1,354.3 		"/>
		<path class="st3" d="M1158.4,421.6c0,0,8.8,25.3,6.5,29.3c-2.3,4-22.6,9.4-28,8c0,0,3,3.9,2,9.1c0,0,6,6.9,4.2,8.9l-13.7-11.9
			l3.5-11.2c0,0,25-0.3,25.5-6.3c0.5-6-5.8-19.4-5.8-19.4L1158.4,421.6z"/>
		<path class="st3" d="M1082.9,432.9c0,0-7.5,34.2-13,22.6c-5.5-11.6-1.7-30.1-7.9-33.9l1.4,8.5l-21.7,5.8l10,2l10.2-1.4
			c0,0,1.1,32.6,10.4,30.6c9.3-2,14.9-19.4,14.9-19.4"/>
	</g>
	<g>
		<path class="st2" d="M98.7,388c0.2-4.9,19.8-9.1,29.8-4.3c10,4.9,29.1,13.8,34.4,24.6s12,15.3,14.9,14.7l-6.7,4.7
			c0,0,33.1,78.8,17.1,113.9c-16,35.1-107,2.2-107,2.2s54.4,2.9,44.4-52.6s-15.3-90-21.1-96.6C98.7,388,98.5,393,98.7,388z"/>
		<path class="st2" d="M178.2,446.8c0,0,17.1,41.6,28.2,35.4c11.1-6.2-9.5-35.3,0-40.9c9.5-5.6,18.9,4.7,18.9,4.7s-11.5-4.7-10.2,6
			c1.3,10.7,17.8,42.9,0.7,48.6c-17.1,5.8-30.6-11.1-30.6-11.1l-0.1-0.1C176.3,477,173.7,461.2,178.2,446.8L178.2,446.8z"/>
		<path class="st2" d="M139.6,469.7c1.9,4.5-0.7,41.1-32.6,43.9c-3.8,0-15.3-11.3-21.3,1.8c0,0-7.5-14.9,9.5-16
			c17.1-1.1,30.6-5.7,31.1-41.1C135.7,455.4,137.6,465.2,139.6,469.7z"/>
		<path class="st3" d="M121.5,482.2c-0.5-3.1-1.1-6-1.6-9c-8.1-45.7-12.9-74-18.1-80c-5.8-6.6-6-1.7-5.8-6.6
			c0.2-4.9,19.8-9.1,29.8-4.3s29.1,13.8,34.4,24.6s12,15.3,14.9,14.7l-6.7,4.7c0,0,33.1,78.8,17.1,113.9s-107,2.2-107,2.2
			s43.3,2.3,45.5-36.7"/>
		<path class="st3" d="M175.5,445.4c0,0,17.1,41.6,28.2,35.4c11.1-6.2-9.5-35.3,0-40.9c9.5-5.6,18.9,4.7,18.9,4.7s-11.5-4.7-10.2,6
			c1.3,10.7,17.8,42.9,0.7,48.6c-10.5,3.5-19.6-1.4-25.1-5.8"/>
		<g>
			<path class="st2" d="M136.9,468.4c-0.1,5-0.9,10-2.2,14.9c-1.3,4.9-3.1,9.6-5.7,13.9c-2.6,4.3-6.1,8.2-10.4,10.9
				c-4.3,2.8-9.3,4.2-14.3,4.8l0,0c-0.6,0-1.2-0.2-1.7-0.4c-0.5-0.2-1-0.4-1.5-0.6l-2.8-1.4c-1.9-0.9-3.8-1.7-5.8-2
				c-2-0.3-4,0-5.6,1.2c-1.6,1.1-2.7,2.9-3.6,4.7l-0.9,0c-0.8-1.6-1.3-3.3-1.5-5.1c-0.3-1.8-0.2-3.6,0.4-5.3
				c0.6-1.7,1.9-3.2,3.4-4.1c1.5-1,3.3-1.5,5-1.8c1.7-0.3,3.5-0.3,5.2-0.5c1.7-0.2,3.4-0.3,5.1-0.6c3.4-0.5,6.7-1.4,9.7-3.1
				c1.5-0.8,2.8-1.8,4.1-3c1.2-1.2,2.3-2.5,3.2-3.9c1.8-2.9,3.1-6.1,4-9.4c1.8-6.6,2.3-13.6,2.5-20.5c0,6.9-0.3,13.8-2,20.6
				c-0.4,1.7-1,3.3-1.6,4.9c-0.3,0.8-0.7,1.6-1.1,2.4c-0.4,0.8-0.8,1.5-1.3,2.3c-0.9,1.5-2,2.8-3.3,4.1c-1.3,1.2-2.7,2.3-4.2,3.1
				c-3,1.8-6.5,2.7-9.9,3.3c-1.7,0.3-3.4,0.5-5.2,0.6c-1.7,0.2-3.5,0.2-5.1,0.5c-1.6,0.3-3.3,0.8-4.7,1.7c-1.4,0.9-2.5,2.1-3,3.7
				c-0.5,1.5-0.6,3.2-0.3,4.9c0.3,1.6,0.8,3.3,1.5,4.8l-0.9,0c0.9-1.9,2.1-3.8,3.9-5.1c0.9-0.6,1.9-1.1,3-1.3c1.1-0.2,2.2-0.2,3.3,0
				c2.1,0.3,4.1,1.2,6,2.1l2.8,1.4c0.9,0.4,1.9,0.9,2.7,1l0,0c4.9-0.5,9.8-1.9,14-4.6c4.2-2.6,7.7-6.3,10.3-10.5
				c2.6-4.2,4.5-8.9,5.9-13.7C135.8,478.3,136.6,473.4,136.9,468.4z"/>
		</g>
	</g>
	<g>
		<path class="st2" d="M299.6,378c0,0-4.4,71.9,6.8,111.1c0,8.4,0.5,27.2-18.2,32.6c-18.8,5.4-27.7,13.1-27.7,13.1l58.7-14.1
			c0,0-29.6,27.2-30.7,35.1c0,0,36.7-19.6,44.3-20.9c7.6-1.4,19.6-10.1,21.2-16.6c0,0,16.3,15.2,34.8,13.6c11.7-1.1,30.7-4.9,35.1-3
			c4.4,1.9-43-14.4-44.9-17.9c-1.9-3.5-9.8-20.2-7.3-34.2c2.4-14,0.8-45,0.8-45h7.9c0,0-7.3-13.8-9.5-22.8c-2-8.1-4.8-46-36.9-44.5
			c-5.8,0.3-11.4,1.8-16.6,4.4C310.2,372.3,299.6,378,299.6,378z"/>
		<path class="st2" d="M366.8,507.3c0,0,21.6-5.5,22.2-8.8c0,0-13.1-1.4-16.7-6.3"/>
		<path class="st2" d="M308.6,493.9c0,0-10.7,14.2-23.4,14.5c0,0,21.3,4.1,27.2,2.4"/>
		<path class="st3" d="M297.4,376.9c0,0-4.4,71.9,6.8,111.1c0,8.4,0.5,27.2-18.2,32.6c-18.8,5.4-27.7,13.1-27.7,13.1l58.7-14.1
			c0,0-29.6,27.2-30.7,35.1c0,0,36.7-19.6,44.3-20.9c7.6-1.4,19.6-10.1,21.2-16.6c0,0,16.3,15.2,34.8,13.6c11.7-1.1,30.7-4.9,35.1-3
			c4.4,1.9-43-14.4-44.9-17.9s-9.8-20.2-7.3-34.2s0.8-45,0.8-45h7.9c0,0-7.3-13.8-9.5-22.8c-2-8.1-4.8-46-36.9-44.5
			c-5.8,0.3-11.4,1.8-16.6,4.4C308,371.2,297.4,376.9,297.4,376.9z"/>
		<path class="st3" d="M374.7,505.3c0,0,11.6-4.5,12.2-7.8c0,0-13.1-1.4-16.7-6.3"/>
		<path class="st3" d="M304.1,494.3c0,0-8.3,12.8-21.1,13c0,0,11.3,4.1,17.2,2.4"/>
	</g>
	<g>
		<path class="st2" d="M277.8,483.7c0,0,9.8,13.1,6.4,30.2l-6.4-7.1V483.7z"/>
		<path class="st2" d="M256.3,395.7c0,0,2.7,44.6-8.2,52c-10.9,7.3-14.2-52-14.2-52h-5.6c0,0,3.1,41.5-4.7,56.4s-34.9,53.1-14,74.6
			c20.9,21.5,49.1,13.5,57.1,8.7s22.9-24.9,11.1-51.7c-11.8-26.9-16.9-37.1-16.7-46.6c0.2-9.5,1.6-44.8,1.6-44.8L256.3,395.7z"/>
		<path class="st2" d="M220.3,399.3c0,0,12.7,2.9,15.8-4.9s0.4-17.9-9.1-18.3c-9.5-0.4-17,5.9-14.6,13.6S220.3,399.3,220.3,399.3z"
			/>
		<path class="st2" d="M256.3,395.7c10.4-0.7,21.2-8.1,10.4-19.6c-10.8-11.5-24.6,6.1-21,11.8C249.1,393.8,253.4,395.9,256.3,395.7z
			"/>
		<path class="st3" d="M225.6,398.5c0,0,3.2,37.4-4.6,52.3c-7.8,14.9-34.9,53.1-14,74.6c4.4,4.6,9.2,7.8,14,10"/>
		<path class="st3" d="M253.6,394.4c0,0,2.7,44.6-8.2,52c-10.9,7.3-14.2-52-14.2-52"/>
		<path class="st3" d="M217.6,398c0,0,12.7,2.9,15.8-4.9s0.4-17.9-9.1-18.3c-9.5-0.4-17,5.9-14.6,13.6S217.6,398,217.6,398z"/>
		<path class="st3" d="M253.6,394.4c10.4-0.7,21.2-8.1,10.4-19.6c-10.8-11.5-24.6,6.1-21,11.8C246.5,392.4,250.8,394.6,253.6,394.4z
			"/>
	</g>
	<g>
		<path class="st2" d="M580.6,455.6c0,0-8.9-32.2-24.9-33.9c-16-1.6-56.4,8.9-53.9,38.2c2.4,29.3,17.9,46.3,30.6,49
			c12.7,2.7,61,4.1,45.5-38.5l-3.3,9.5l-6-14.1l-1.6,17.7l-6.2-4.6l-4.6,10l-3-5.4l-1.4,5.1l-6.2-8.7l-1.6,11.4
			c0,0-21.2-6.8-14-38.5l5.6,14.4l1.9-14.4l7.3,10l-0.3-8.7l14.8,11.6l-4.5-13l12.5,7.6l-4.6-14.6L580.6,455.6z"/>
		<path class="st2" d="M563.3,559.1c-0.8-0.3-10,0-10,0l-1.4-49.3l11.4-2.2c0,0-8.7,40.4-5.7,44.7
			C560.6,556.6,563.3,559.1,563.3,559.1z"/>
		<path class="st2" d="M538.9,507.6c0,0-5.7,43.1,0,47.7c0,0,4.1,4.9,5.4,3.8h-15.4l1.2-53.6L538.9,507.6z"/>
		<path class="st2" d="M580.4,490.6c0,0,12.4,17.3,20.2,13.2c4.1-1.4,3.3-21.7,3.3-21.7l20-5.7c0,0-8.7-5.4-20.6,0
			c0,0,2-6.8-1.2-6.5c0,0-1.5,15.2-2.3,20.6s-2.3,20-19.7-12.4L580.4,490.6z"/>
		<path class="st2" d="M513.4,486.8c0.9,0,1.1,1.3,0.3,1.6c-6.6,2.5-19.9,8.3-16.2,14.3c1.6,2.7,21.7-6.2,27.9-4.1
			c6.2,2.2-3.8,16.5-3.8,16.5l-4.3,3l-2.4-3l2.2-6.5c0,0-5.6,4.1-4.9,0.5c0.8-3.5,8.5-6.6,8.5-6.6s-27.8,10.6-31,6
			C486.6,504.4,494.5,486,513.4,486.8z"/>
		<path class="st2" d="M515.6,482.1c-2.5-1.2-41.7-19-45.8-17.6c0,0-6,8.9-7,6.8c-1.1-2.2,2.7-5.5,2.7-5.5s-9.5,4.7-9.8,2.5
			c-0.3-2.2,6.5-3.9,6.5-3.9s-7.1,2.9-6.5,0c0.5-2.9,8.7-2.4,8.7-2.4s-9.6-3-8.7-5.4c0.9-2.4,8.7,2.2,8.7,2.2s-1.6-4.6,0-4.9
			s5.1,6.2,5.1,6.2s38.5,9.7,45.5,17.2c0.4,0.4,0.7,0.8,1.1,1.1C518.8,480.8,517.9,483.3,515.6,482.1z"/>
		<path class="st2" d="M532,481.6c0,0,0.2-9.5,6.4-9.2c6.2,0.3,8.1,2.4,9.8-3c1.6-5.4,4.3,1.9,6.8,0c2.4-1.9,4.6-1.9,4.6-1.9
			s-4.9,7.3-8.7,3c0,0,2,6-3.3,5.9s-7.9-3.7-9.8-0.1c-1.8,3.6-3.2,8.7-3.2,8.7L532,481.6z"/>
		<path class="st2" d="M578.5,472l32-15.5c0,0-1.1-9.1,0-9.2s2.8,3.8,2.7,5.6c0,0,5.4-5,7.9-4.6s-2.4,5.7-2.4,5.7s5.1-3.6,6.4-2.6
			c1.2,1.1-4.7,4.5-4.7,4.5s3.8-0.7,3.8,1.1c0,1.8-6.4,1.5-6.4,1.5s3.7,2.2,3.3,3.4c-0.4,1.2-8.5-2.1-8.5-2.1l-33.1,21.2L578.5,472z
			"/>
		<g>
			<path class="st2" d="M576.3,470.9c10.6-5.3,21.2-10.6,31.8-15.8l-0.2,0.4c-0.2-1.3-0.3-2.6-0.4-4c-0.1-1.3-0.2-2.7-0.1-4
				c0-0.3,0.1-0.7,0.2-1.1c0-0.1,0.1-0.2,0.2-0.3c0.1-0.1,0.1-0.1,0.2-0.2c0.1-0.1,0.3-0.1,0.3-0.1c0.3,0,0.5,0.1,0.7,0.3
				c0.7,0.5,1,1.1,1.3,1.7c0.3,0.6,0.6,1.2,0.8,1.9c0.2,0.7,0.4,1.3,0.3,2.1l-0.7-0.4c1-0.9,2.1-1.8,3.2-2.6c1.1-0.8,2.3-1.6,3.7-2
				c0.4-0.1,0.7-0.2,1.2-0.1c0.2,0,0.4,0.1,0.7,0.2c0.2,0.2,0.4,0.4,0.5,0.7c0.1,0.5-0.1,0.9-0.2,1.3c-0.1,0.4-0.3,0.7-0.5,1
				c-0.7,1.2-1.6,2.3-2.5,3.3l-0.6-0.7c1-0.7,2-1.3,3-1.9c0.5-0.3,1.1-0.5,1.7-0.7c0.3-0.1,0.6-0.2,1-0.2c0.2,0,0.3,0,0.6,0
				c0.1,0,0.2,0,0.3,0.1c0.1,0,0.2,0.1,0.3,0.2c0.2,0.1,0.4,0.4,0.4,0.7c0,0.3-0.1,0.5-0.1,0.7c-0.2,0.3-0.4,0.6-0.6,0.8
				c-0.4,0.5-0.9,0.8-1.4,1.2c-1,0.7-2,1.3-3,1.9l-0.3-0.9c1-0.1,2-0.2,3,0c0.3,0.1,0.5,0.2,0.8,0.4c0.2,0.2,0.5,0.6,0.5,0.9
				c0.1,0.3-0.1,0.8-0.3,1c-0.2,0.3-0.5,0.4-0.7,0.5c-1,0.4-2,0.5-2.9,0.6c-1,0.1-1.9,0.1-2.9,0l0.2-0.8c1,0.6,2,1.3,2.8,2.2
				c0.2,0.2,0.4,0.5,0.6,0.9c0.1,0.2,0.1,0.4,0.1,0.6l0,0.2c0,0.1-0.1,0.2-0.1,0.2c-0.1,0.1-0.3,0.2-0.4,0.2
				c-0.4,0.1-0.7,0.1-1.1,0.1c-0.3,0-0.6-0.1-0.9-0.2c-1.2-0.3-2.3-0.6-3.4-1c-1.1-0.4-2.2-0.8-3.3-1.3l0.4,0
				c-11.1,7-22.1,14-33.3,20.9c10.9-7.3,21.9-14.4,32.8-21.6l0.4,0c2.1,0.8,4.3,1.7,6.5,2.2c0.3,0.1,0.5,0.1,0.8,0.1
				c0.3,0,0.6,0,0.7,0c0,0,0,0,0,0c0,0,0,0,0,0.1c0,0,0,0,0,0c0,0,0-0.1,0-0.2c-0.1-0.2-0.2-0.4-0.4-0.6c-0.7-0.8-1.7-1.4-2.6-2
				l0.2-0.8c0.9,0,1.9,0,2.8-0.1c0.9-0.1,1.9-0.2,2.6-0.5c0.2-0.1,0.3-0.2,0.4-0.3c0.1-0.1,0.1-0.1,0.1-0.3c0-0.1-0.1-0.2-0.2-0.3
				c-0.1-0.1-0.3-0.2-0.5-0.2c-0.8-0.2-1.7-0.1-2.6,0l-0.3-0.9c1-0.6,2-1.2,2.9-1.9c0.5-0.3,0.9-0.7,1.3-1.1
				c0.2-0.2,0.4-0.4,0.4-0.6c0-0.1,0.1-0.2,0-0.1c0,0,0,0,0,0c-0.2-0.1-0.8,0-1.3,0.1c-0.5,0.2-1,0.4-1.5,0.7c-1,0.5-2,1.1-2.9,1.8
				l-0.6-0.7c0.9-1,1.8-2,2.4-3.1c0.2-0.3,0.3-0.6,0.4-0.8c0.1-0.3,0.2-0.6,0.1-0.7c0.1-0.2-0.6-0.3-1.2-0.1
				c-1.2,0.4-2.3,1.1-3.4,1.9c-1.1,0.8-2.1,1.6-3.1,2.5l-0.7-0.4c0-1.1-0.4-2.4-1-3.6c-0.3-0.5-0.6-1.1-1-1.4
				c-0.1-0.1-0.2-0.1-0.2-0.1c0,0,0,0,0.1,0c0,0,0,0,0,0c0,0,0,0,0,0.1c-0.1,0.2-0.1,0.6-0.1,0.9c-0.1,1.3,0,2.6,0.1,3.9
				c0.1,1.3,0.2,2.6,0.3,3.9l-0.2,0.4C597.7,460.9,587,466,576.3,470.9z"/>
		</g>
		<g>
			<path class="st2" d="M578.3,489.5c1.3,1.7,2.7,3.3,4.1,4.9c1.5,1.6,3,3.1,4.6,4.4c1.6,1.3,3.4,2.6,5.4,3.4c1,0.4,2,0.7,3,0.8
				c1,0.1,2.1-0.1,3-0.6l0,0c0.7-0.3,1.2-1.2,1.5-2c0.3-0.8,0.5-1.8,0.7-2.7c0.3-1.8,0.5-3.7,0.6-5.5c0.2-3.7,0.2-7.5,0.1-11.2
				l0.3-0.4l20-5.7l-0.1,0.9c-1.5-0.8-3.2-1.4-4.8-1.8c-1.7-0.4-3.4-0.6-5.2-0.5c-1.7,0.1-3.5,0.2-5.2,0.7c-0.9,0.2-1.7,0.5-2.5,0.7
				c-0.8,0.3-1.6,0.6-2.4,1l-0.6-0.6c0.3-1.2,0.6-2.4,0.6-3.6c0-0.6,0-1.2-0.2-1.7c-0.2-0.5-0.5-0.7-1.1-0.6l0.4-0.4l-1.6,14.1
				c-0.3,2.3-0.6,4.7-0.9,7c-0.2,1.2-0.4,2.3-0.7,3.5c-0.3,1.2-0.7,2.3-1.6,3.3c-0.4,0.5-1.1,0.8-1.7,0.9c-0.7,0.1-1.3-0.2-1.9-0.4
				c-1.1-0.6-2-1.4-2.8-2.3c-1.7-1.7-3-3.7-4.3-5.6c-2.6-4-4.9-8.1-7.1-12.3c2.3,4.1,4.7,8.2,7.4,12.1c1.3,1.9,2.8,3.8,4.4,5.5
				c0.8,0.8,1.7,1.6,2.7,2.1c0.5,0.2,1,0.4,1.5,0.4c0.5,0,1-0.3,1.3-0.7c0.7-0.8,1.1-2,1.4-3.1c0.3-1.1,0.4-2.3,0.6-3.4
				c0.3-2.3,0.5-4.7,0.8-7l1.6-14.1l0.4-0.4c0.2,0,0.4,0,0.6,0c0.2,0,0.4,0.1,0.6,0.2c0.2,0.1,0.3,0.3,0.5,0.4
				c0.1,0.2,0.2,0.3,0.3,0.5c0.3,0.7,0.3,1.4,0.3,2.1c0,1.3-0.3,2.6-0.6,3.9l-0.6-0.6c0.8-0.3,1.7-0.7,2.5-1
				c0.9-0.3,1.7-0.6,2.6-0.8c1.8-0.5,3.6-0.6,5.4-0.7c1.8,0,3.6,0.2,5.4,0.6c1.8,0.4,3.5,1,5.1,1.9l-0.1,0.9l-20.1,5.6l0.3-0.4
				c0.1,3.8,0.1,7.5-0.2,11.3c-0.1,1.9-0.4,3.8-0.7,5.6c-0.2,0.9-0.4,1.9-0.8,2.8c-0.4,0.9-0.8,1.9-1.9,2.3l0,0
				c-1,0.5-2.2,0.7-3.3,0.6c-1.1-0.1-2.2-0.4-3.2-0.9c-2-0.9-3.7-2.2-5.4-3.6c-1.6-1.4-3.1-3-4.5-4.6
				C580.9,492.9,579.5,491.3,578.3,489.5z"/>
		</g>
		<path class="st3" d="M530.9,481.1c0,0,0.2-9.5,6.4-9.2c6.2,0.3,8.1,2.4,9.8-3c1.6-5.4,4.3,1.9,6.8,0c2.4-1.9,4.6-1.9,4.6-1.9
			s-4.9,7.3-8.7,3c0,0,2,6-3.3,5.9c-5.2-0.1-7.9-3.7-9.8-0.1c-1.8,3.6-3.2,8.7-3.2,8.7L530.9,481.1z"/>
		<path class="st3" d="M534.4,508.5c16.7,1.9,55.4-0.4,41.3-39.1l-3.3,9.5l-6-14.1l-1.6,17.7l-6.2-4.6l-4.6,10l-3-5.4l-1.4,5.1
			l-6.2-8.7l-1.6,11.4c0,0-21.2-6.8-14-38.5l5.6,14.4l1.9-14.4l7.3,10l-0.3-8.7l14.8,11.6l-4.5-13l12.5,7.6l-4.6-14.6l17.9,9.8
			c0,0-8.9-32.2-24.9-33.9c-16-1.6-56.4,8.9-53.9,38.2c0.3,3.8,0.9,7.4,1.6,10.8"/>
		<path class="st3" d="M508.5,489.2c1.6,2.8,3.4,5.3,5.2,7.5"/>
		<path class="st3" d="M503.3,477.4c0.8,2.5,1.8,4.9,2.8,7.1"/>
		<path class="st3" d="M561.1,558c-0.8-0.3-10,0-10,0l-1.4-49.3l11.4-2.2c0,0-8.7,40.4-5.7,44.7C558.4,555.6,561.1,558,561.1,558z"
			/>
		<path class="st3" d="M536.7,506.5c0,0-5.7,43.1,0,47.7c0,0,4.1,4.9,5.4,3.8h-15.4l1.2-53.6"/>
		<g>
			<path class="st2" d="M513.1,486.8c-2.9,1-5.7,2.2-8.4,3.6c-2.7,1.4-5.4,2.9-7.6,5c-1,1-2,2.3-2.2,3.7c-0.1,0.7,0,1.4,0.3,2.1
				c0.1,0.1,0.2,0.3,0.3,0.4c0.1,0.1,0.2,0.2,0.3,0.2c0.3,0.1,0.7,0.1,1,0.1c1.5-0.1,3-0.4,4.4-0.8c1.5-0.4,2.9-0.8,4.4-1.2
				c2.9-0.8,5.9-1.7,8.9-2.3c1.5-0.3,3-0.6,4.6-0.7c0.8-0.1,1.6-0.1,2.3,0c0.8,0.1,1.6,0.2,2.4,0.6c0.8,0.4,1.4,1.2,1.6,2
				c0.2,0.8,0.2,1.7,0.1,2.4c-0.2,1.6-0.7,3.1-1.3,4.5c-1.2,2.8-2.8,5.5-4.5,8l-0.1,0.1l-4.3,3l-0.6-0.1l-2.4-3l-0.1-0.5l2.2-6.5
				l0.8,0.6c-0.6,0.4-1.3,0.8-1.9,1.2c-0.7,0.4-1.3,0.7-2.2,0.8c-0.2,0-0.5,0-0.8,0c-0.3-0.1-0.6-0.3-0.7-0.6c-0.2-0.6-0.1-1,0-1.4
				c0.2-0.8,0.7-1.5,1.2-2.1c1.1-1.1,2.3-2,3.6-2.8c1.3-0.8,2.6-1.4,4-2l0.3,0.9c-5.5,2-11.1,3.9-16.8,5.4c-2.9,0.7-5.7,1.4-8.7,1.6
				c-0.7,0.1-1.5,0.1-2.2,0.1c-0.8,0-1.5-0.1-2.3-0.4c-0.4-0.1-0.8-0.3-1.1-0.6c-0.3-0.3-0.5-0.7-0.7-1c-0.3-0.8-0.4-1.5-0.3-2.3
				c0.2-3,1.5-5.8,3.1-8.3c1.6-2.5,3.7-4.7,6.1-6.4c2.4-1.7,5.1-3,8-3.7c2.9-0.7,5.8-0.9,8.8-0.6c-2.9-0.2-5.9,0-8.7,0.8
				c-2.8,0.8-5.5,2.1-7.8,3.8c-2.3,1.7-4.3,3.9-5.9,6.4c-1.5,2.4-2.7,5.2-2.9,8.1c0,1.4,0.3,2.9,1.6,3.3c1.3,0.4,2.8,0.3,4.2,0.2
				c2.9-0.3,5.7-1,8.6-1.7c5.7-1.5,11.2-3.4,16.7-5.4l0.3,0.9c-1.3,0.5-2.6,1.2-3.9,1.9c-1.2,0.7-2.4,1.6-3.3,2.6
				c-0.4,0.5-0.8,1.1-1,1.7c-0.1,0.3-0.1,0.7,0,0.8c0,0.1,0,0.1,0.1,0.1c0.1,0,0.2,0,0.3,0c0.6-0.1,1.3-0.4,1.9-0.7
				c0.6-0.3,1.2-0.7,1.8-1.1l0.8,0.6l-2.2,6.5l-0.1-0.5l2.4,3l-0.6-0.1l4.3-3l-0.1,0.1c1.7-2.5,3.2-5.1,4.4-7.9
				c0.6-1.4,1.1-2.8,1.3-4.2c0.2-1.4,0-3-1.3-3.6c-0.6-0.3-1.3-0.4-2-0.5c-0.7-0.1-1.5,0-2.2,0c-1.5,0.1-3,0.4-4.5,0.7
				c-3,0.6-5.9,1.4-8.8,2.2c-1.5,0.4-2.9,0.8-4.4,1.1c-1.5,0.3-3,0.7-4.6,0.7c-0.4,0-0.8,0-1.2-0.2c-0.2-0.1-0.4-0.2-0.6-0.4
				c-0.2-0.2-0.2-0.4-0.3-0.5c-0.3-0.7-0.5-1.6-0.4-2.4c0.3-1.6,1.3-2.9,2.4-3.9c2.3-2.1,5-3.5,7.7-4.9
				C507.4,488.9,510.2,487.7,513.1,486.8z"/>
		</g>
		<g>
			<path class="st2" d="M513.4,481.1c-7.5-3.3-15.1-6.5-22.7-9.6c-3.8-1.5-7.6-3.1-11.4-4.5c-1.9-0.7-3.9-1.4-5.8-2
				c-1-0.3-2-0.6-2.9-0.8c-0.5-0.1-1-0.2-1.5-0.3c-0.5-0.1-1-0.1-1.3,0l0.2-0.2c-0.8,1.2-1.6,2.3-2.5,3.5c-0.9,1.1-1.8,2.2-2.9,3.2
				c-0.3,0.2-0.6,0.5-1,0.6c-0.2,0.1-0.5,0.1-0.8,0c-0.3-0.1-0.5-0.4-0.5-0.6c-0.3-0.8-0.1-1.7,0.2-2.4c0.6-1.4,1.6-2.5,2.7-3.5
				l0.5,0.7c-1.4,0.7-2.8,1.3-4.3,1.9c-1.5,0.5-2.9,1.1-4.6,1.2c-0.2,0-0.5,0-0.7-0.1c-0.3-0.1-0.6-0.3-0.7-0.6
				c-0.1-0.4-0.1-0.6,0-0.9c0.1-0.2,0.2-0.5,0.3-0.7c0.6-0.7,1.3-1.1,2-1.5c1.4-0.7,2.9-1.2,4.4-1.6l0.3,0.9c-1.4,0.5-2.7,1-4.2,1.2
				c-0.4,0.1-0.8,0.1-1.2,0.1c-0.4,0-0.8,0-1.3-0.3c-0.2-0.1-0.4-0.4-0.5-0.7c-0.1-0.3-0.1-0.5-0.1-0.7c0.1-0.5,0.3-0.9,0.6-1.2
				c0.6-0.6,1.4-0.9,2.1-1.1c0.7-0.2,1.5-0.3,2.2-0.4c1.5-0.2,2.9-0.2,4.4-0.1l-0.2,0.9c-1.6-0.5-3.2-1.1-4.8-1.9
				c-0.8-0.4-1.6-0.8-2.3-1.2c-0.4-0.2-0.7-0.5-1.1-0.8c-0.3-0.3-0.7-0.7-0.8-1.3c-0.2-0.6,0.1-1.3,0.7-1.6c0.5-0.3,1.1-0.3,1.5-0.2
				c0.9,0.1,1.8,0.4,2.6,0.7c1.6,0.6,3.1,1.4,4.6,2.3l-0.6,0.5c-0.4-1.1-0.7-2.2-0.7-3.4c0-0.3,0-0.6,0.1-1c0.1-0.3,0.3-0.8,0.7-0.9
				c0.2-0.1,0.5-0.1,0.7-0.1c0.2,0,0.4,0.1,0.5,0.2c0.3,0.2,0.5,0.4,0.8,0.6c0.9,0.8,1.5,1.8,2.2,2.7c0.6,1,1.2,1.9,1.8,2.9
				l-0.3-0.2c8,2.1,16,4.4,23.8,7.2c3.9,1.4,7.8,2.9,11.5,4.7c3.7,1.7,7.5,3.7,10.6,6.4c-3.2-2.7-7-4.5-10.7-6.2
				c-3.8-1.6-7.7-3.1-11.6-4.4c-7.8-2.7-15.8-4.9-23.8-6.9l-0.3-0.2c-0.5-1-1.1-1.9-1.8-2.9c-0.6-0.9-1.3-1.8-2-2.6
				c-0.4-0.4-0.9-0.7-1-0.5c-0.2,0-0.3,0.6-0.3,1.1c0.1,1,0.4,2.1,0.7,3.2l-0.6,0.5c-1.5-0.8-3-1.6-4.5-2.2
				c-0.8-0.3-1.6-0.5-2.3-0.6c-0.4,0-0.8,0-1,0.1c-0.2,0.1-0.3,0.3-0.2,0.6c0.2,0.5,0.9,1.1,1.5,1.5c0.7,0.4,1.4,0.8,2.2,1.2
				c1.5,0.7,3.1,1.3,4.7,1.8l-0.2,0.9c-1.4-0.1-2.8,0-4.2,0.1c-0.7,0.1-1.4,0.2-2,0.4c-0.6,0.2-1.3,0.5-1.6,0.9
				c-0.4,0.4-0.4,1.1-0.2,1.1c0.3,0.2,1.1,0.2,1.7,0.1c1.3-0.2,2.7-0.7,4-1.2l0.3,0.9c-1.5,0.4-2.9,0.9-4.2,1.5
				c-0.6,0.3-1.3,0.7-1.7,1.2c-0.1,0.1-0.1,0.2-0.2,0.4c0,0.1,0,0.3,0,0.3c0,0,0,0,0.1,0.1c0.1,0,0.3,0,0.4,0
				c1.4-0.1,2.9-0.6,4.3-1.2c1.4-0.6,2.8-1.2,4.2-1.8l0.5,0.7c-1,0.9-1.9,2-2.5,3.1c-0.3,0.6-0.4,1.2-0.2,1.7c0.1,0.2,0,0.2,0.3,0.2
				c0.2-0.1,0.5-0.3,0.8-0.5c1-0.8,1.9-1.9,2.8-3c0.9-1.1,1.7-2.2,2.5-3.4l0.2-0.2c0.3-0.1,0.6-0.1,0.9-0.1c0.3,0,0.6,0,0.8,0.1
				c0.5,0.1,1,0.2,1.5,0.3c1,0.3,2,0.6,3,0.9c2,0.6,3.9,1.4,5.8,2.1c3.8,1.5,7.6,3,11.4,4.6C498.5,474.2,506,477.6,513.4,481.1z"/>
		</g>
		<path class="st3" d="M515.9,443.7c0,0-30.1-50.9-47.1,1.4"/>
		<path class="st3" d="M537.3,427.1c0,0-43.3-40.1-45,22.5"/>
		<circle class="st4" cx="469.1" cy="447.9" r="3.9"/>
		<circle class="st4" cx="492.3" cy="452.9" r="3.9"/>
	</g>
</g>
<g id="boots">
	<polygon class="st5" points="68.9,536.5 84,534.1 84,550.2 93.5,559.2 70.4,559.2 	"/>
	<polygon class="st5" points="54.1,534.1 68.9,536.5 65.7,552.1 73,558.3 49.1,559.8 	"/>
	<path class="st5" d="M102,398.5l20.9-19.1l-22.6-10.1c0,0,10-16.1,1.5-18.6c-8.5-2.5-20.5,26.8-20.5,26.8L102,398.5z"/>
	<path class="st5" d="M239.4,542l23.8-4.6c0,0-2.5,12.2-4.9,13.2c0,0,6,4.5,6.2,7.3l-24.5,1.3L239.4,542z"/>
	<path class="st5" d="M219.1,537.4l21.6,3.7c0,0-1.5,9.2-2.9,11.3c0,0,5.5,3.9,5.5,6.9h-23.9L219.1,537.4z"/>
	<path class="st5" d="M323,539.1c0,0-7.9-11.2-17.8-12l-19.1,15.2c0,0-10.1-7.1-12.1-1.3s13,17.7,13,17.7L323,539.1z"/>
	<path class="st5" d="M396.3,534.1l-14.2-1c0,0,4.1-20.1,9.5-21"/>
	<path class="st6" d="M526.1,544.6h10.5c0,0,0,12.7,8,13.1v2.3l-18.5-0.1V544.6z"/>
	<path class="st6" d="M548.6,543.4h9c0,0-2.5,9.2,7.1,14.7v1.8h-16.9L548.6,543.4z"/>
	<path class="st5" d="M392.4,536.7l39.6,12v9.9l-66.9,0.9c0,0,6.9-22.6,26.9-18.8L392.4,536.7z"/>
	<path class="st5" d="M445.8,558.1l66.9-4.7c0,0-4.7-15.8-20.5-17.3l-0.2-5.6l-46.1,17.5V558.1z"/>
	<path class="st5" d="M596.5,518c0,0,19.1,5.5,27.4-2.1l-5.4-32.5l-32.4,2c0,0-5.2,14.4,17.2,12.8L596.5,518z"/>
	<path class="st5" d="M783.4,539.8l15.8-0.3l-0.6,16.4h-19.3C779.3,555.9,785.5,546.6,783.4,539.8z"/>
	<path class="st5" d="M855.4,543l15.8-0.3l-0.6,16.4h-19.3C851.3,559.1,857.5,549.7,855.4,543z"/>
	<path class="st7" d="M675.4,545.6l16.3,1.5l1.6,9.8l-18.5,2.9C674.8,559.6,681.3,550.1,675.4,545.6z"/>
	<path class="st7" d="M697,546.4l17.1,0.7l1.6,9.8l-19.8,1.2C695.9,558,701.4,551.3,697,546.4z"/>
	<path class="st5" d="M994.4,539.5l27.6,3.4l1.6,15.7l-27.6-1.2c0,0,13.2-4.1,11.3-6.1S994.7,548.2,994.4,539.5z"/>
	<path class="st5" d="M1057.6,546.9l29.1-4c0,0-5.5,9.9-10.2,10.9c-1.8,0.9,6.6,3.8,7.4,6.1h-25.2L1057.6,546.9z"/>
	<path class="st5" d="M950.7,542.9h11.7l1,15.2l-27.1-0.6l0.5-3C936.8,554.5,952.9,553.3,950.7,542.9z"/>
	<path class="st5" d="M965,558.1l-0.8-4.9c0,0,14.4-4,14.4-12.3h12.4v17.3L965,558.1z"/>
	<polygon class="st5" points="1091.2,533.2 1099.6,533.2 1096.7,546.8 1077.6,553.6 	"/>
	<path class="st5" d="M1117.3,533.2l11.5-0.7c0,0,4,23.8,6.7,26.5l-17.1-12L1117.3,533.2z"/>
	<polygon class="st5" points="1119.4,533 1121.1,559 1107,546.3 1107,533 	"/>
	<polygon class="st5" points="1107,533 1099.6,533.2 1092.1,557.1 1108,547.9 1108,533 	"/>
</g>
</svg>
